<svg xmlns="http://www.w3.org/2000/svg" version="1.1" xmlns:xlink="http://www.w3.org/1999/xlink" xmlns:svgjs="http://svgjs.dev/svgjs" width="522" height="521.73596"><svg width="522" height="521.73596" viewBox="0 0 668.16 667.82203" class="icon" version="1.1" id="SvgjsSvg1161" sodipodi:docname="bunny.svg" inkscape:version="1.2.1 (9c6d41e, 2022-07-14)" xmlns:inkscape="http://www.inkscape.org/namespaces/inkscape" xmlns:sodipodi="http://sodipodi.sourceforge.net/DTD/sodipodi-0.dtd" xmlns="http://www.w3.org/2000/svg" xmlns:svg="http://www.w3.org/2000/svg">
  <defs id="SvgjsDefs1160"></defs>
  <sodipodi:namedview id="SvgjsSodipodi:namedview1159" pagecolor="#ffffff" bordercolor="#999999" borderopacity="1" inkscape:showpageshadow="0" inkscape:pageopacity="0" inkscape:pagecheckerboard="0" inkscape:deskcolor="#d1d1d1" showgrid="false" inkscape:zoom="0.73046046" inkscape:cx="114.99596" inkscape:cy="278.5914" inkscape:window-width="1512" inkscape:window-height="831" inkscape:window-x="0" inkscape:window-y="38" inkscape:window-maximized="1" inkscape:current-layer="svg88"></sodipodi:namedview>
  <g id="SvgjsG1158" transform="translate(-49.919991,-29.180161)">
    <path d="m 375.58572,315.17972 c 1.07645,-62.86861 8.4967,-117.92734 22.26326,-165.1712 10.60963,-36.42943 25.48261,-65.528511 49.38427,-92.072591 12.63766,-14.0313 32.36339,-26.45666 50.31836,-20.59239 16.53385,5.39973 15.92445,35.80254 13.73159,55.27103 -6.68347,59.409481 -17.43797,93.308871 -30.8274,121.436411 -16.37401,34.39141 -25.87473,60.13627 -56.12019,117.43032" fill="#faf1e1" id="SvgjsPath1157"></path>
    <path d="m 380.68574,314.2706 c 2.1529,-62.20924 10.42981,-116.47875 24.80827,-162.79851 11.28898,-36.37198 26.45167,-63.795201 49.30935,-88.301271 13.57674,-14.55579 30.25295,-22.06345 42.74076,-17.74267 8.55414,2.95961 11.11914,21.89362 7.78739,47.45365 -6.91824,53.093161 -16.74614,87.407151 -32.21853,118.504281 a 1148.1388,1148.1388 0 0 0 -10.62213,21.98603 l -2.79227,5.91922 c -18.01241,38.2976 -26.33179,55.05373 -44.60644,88.25381 a 7.492683,7.492683 0 1 0 13.12718,7.22295 c 18.45947,-33.53475 26.90123,-50.53815 45.03851,-89.10049 l 2.77979,-5.89924 a 1162.6221,1162.6221 0 0 1 10.48976,-21.7038 c 16.25412,-32.6681 26.54158,-68.57803 33.66462,-123.249641 1.66837,-12.78752 2.09795,-24.72336 0.72429,-34.87594 -1.97307,-14.58576 -7.63754,-24.92566 -18.47196,-28.672 -19.31863,-6.68598 -41.41955,3.26681 -58.59528,21.68132 -24.47609,26.24437 -40.73522,55.645661 -52.66357,94.083121 -14.79805,47.68094 -23.27727,103.24917 -25.47512,166.72469 a 7.492683,7.492683 0 1 0 14.97538,0.51699 z" fill="#524f75" id="SvgjsPath1156"></path>
    <path d="M 382.55141,557.56551 419.84,549.76313 c 31.82392,-6.66349 63.02345,13.73659 69.68445,45.56051 0.83169,3.96613 1.24878,8.00968 1.24878,12.06322 0,40.02341 -32.44582,72.47173 -72.47173,72.47173 h -33.83695 c -30.67005,0 -55.53327,-24.86322 -55.53327,-55.53577 v -0.75426 c 0,-31.91883 22.37814,-59.46443 53.62013,-66.00305 z" fill="#faf1e1" id="SvgjsPath1155"></path>
    <path d="m 384.08492,564.89835 c -27.77038,5.81432 -47.66096,30.29791 -47.66096,58.6727 v 0.75177 c 0,26.53159 21.509,48.04058 48.04059,48.04058 h 33.83695 c 35.88746,0 64.97905,-29.09159 64.97905,-64.97904 0,-3.53904 -0.36465,-7.0656 -1.09144,-10.52722 -5.81182,-27.77538 -33.04023,-45.58049 -60.81561,-39.76616 z m -3.0695,-14.66817 37.28858,-7.80488 c 35.87497,-7.50517 71.04562,15.48987 78.55329,51.36484 0.93658,4.47063 1.40612,9.02618 1.40612,13.59672 0,44.16187 -35.80253,79.96441 -79.96441,79.96441 h -33.83445 c -34.80851,0 -63.02595,-28.21994 -63.02596,-63.02845 v -0.75426 c 0,-35.46537 24.86572,-66.06798 59.57683,-73.33838 z" fill="#524f75" id="SvgjsPath1154"></path>
    <path d="m 367.76585,650.58218 c 38.96195,-7.7849 66.9771,-12.27801 84.05042,-13.47684 14.51083,-1.01901 32.86041,-0.48453 55.05624,1.60343 a 26.876254,26.876254 0 0 1 24.36121,26.75887 c 0,13.27703 -10.76449,24.04152 -24.04152,24.04152 H 368.04059 a 17.690224,17.690224 0 0 1 -17.69023,-17.69022 21.661346,21.661346 0 0 1 17.41549,-21.23676 z" fill="#faf1e1" id="SvgjsPath1153"></path>
    <path d="m 357.84554,671.81894 a 10.197541,10.197541 0 0 0 10.19754,10.19754 h 139.15161 a 16.548839,16.548839 0 0 0 16.54634,-16.54884 19.386068,19.386068 0 0 0 -17.57034,-19.30115 c -21.81869,-2.053 -39.78115,-2.57499 -53.82993,-1.59095 -16.67372,1.17385 -44.4366,5.62451 -83.10634,13.35446 a 14.161171,14.161171 0 0 0 -11.38888,13.88894 z m 93.44625,-42.1888 c 14.96788,-1.05397 33.71207,-0.50701 56.28253,1.61592 a 34.371434,34.371434 0 0 1 31.15208,34.22158 c 0,17.41549 -14.11622,31.5342 -31.53421,31.5342 h -139.1516 c -13.90642,0 -25.18291,-11.27648 -25.18291,-25.1829 a 29.149034,29.149034 0 0 1 23.43711,-28.58209 c 39.25417,-7.84734 67.52406,-12.38041 84.997,-13.60671 z" fill="#524f75" id="SvgjsPath1152"></path>
    <path d="m 523.24402,657.93 h -22.43809 a 7.49518,7.49518 0 0 0 0,14.98537 h 22.43809 a 7.492685,7.492685 0 0 0 0,-14.98537 z" fill="#524f75" id="SvgjsPath1151"></path>
    <path d="m 426.33616,526.87548 48.55008,-7.04062 c 12.98233,-1.50353 24.72086,7.83235 26.2194,20.85214 0.1024,0.90161 0.15485,1.81073 0.15485,2.71734 0,13.1047 -10.59466,23.72683 -23.66439,23.72683 a 24.051512,24.051512 0 0 1 -2.71235,-0.15485 l -44.93612,-3.84874" fill="#faf1e1" id="SvgjsPath1150"></path>
    <path d="m 427.4126,534.29074 48.55259,-7.04062 c 8.64905,-0.99653 16.67372,5.38224 17.69772,14.29104 0.0724,0.6194 0.10739,1.24129 0.10739,1.86318 0,8.97124 -7.24292,16.23415 -16.1717,16.23415 -0.6169,0 -1.2338,-0.035 -1.8482,-0.1074 l -45.1609,-3.87122 a 7.487688,7.487688 0 0 0 -8.10208,6.82584 7.487688,7.487688 0 0 0 6.82333,8.10209 l 44.93612,3.84874 c 0.96655,0.11738 2.15789,0.18482 3.35173,0.18482 17.21319,0 31.15707,-13.98135 31.15707,-31.21952 0,-1.19633 -0.0674,-2.38766 -0.2048,-3.5765 -1.97058,-17.12328 -17.42548,-29.41378 -34.52129,-27.43321 l -48.76738,7.06809 a 7.4928056,7.4928056 0 0 0 2.1504,14.83052 z" fill="#524f75" id="SvgjsPath1149"></path>
    <path d="m 172.83372,572.12379 h 4.99512 c 17.24066,0 31.21951,13.97885 31.21951,31.21952 0,17.24066 -13.97885,31.21951 -31.21951,31.21951 h -4.99512 c -17.24067,0 -31.21952,-13.97885 -31.21952,-31.21951 0,-17.24067 13.97885,-31.21952 31.21952,-31.21952 z" fill="#faf1e1" id="SvgjsPath1148"></path>
    <path d="m 172.83372,579.61648 a 23.72683,23.72683 0 0 0 0,47.45366 h 4.99512 a 23.72683,23.72683 0 0 0 0,-47.45366 z m 0,-14.98537 h 4.99512 c 21.38162,0 38.71219,17.33058 38.71219,38.7122 0,21.38162 -17.33057,38.71219 -38.71219,38.71219 h -4.99512 c -21.38162,0 -38.7122,-17.33057 -38.7122,-38.71219 0,-21.38162 17.33058,-38.7122 38.7122,-38.7122 z" fill="#524f75" id="SvgjsPath1147"></path>
    <path d="m 433.20944,514.54502 h 54.48679 c 8.17452,0 16.30658,-1.11391 24.17889,-3.31676 47.59852,-13.31699 72.82638,-60.90802 68.9152,-108.49405 L 576.37463,379.5069 C 560.99965,324.85777 506.11575,283.98268 462.87797,269.92141 419.6402,255.86015 384.44207,254.74623 340.22025,264.18452 295.99844,273.6228 234.37861,312.65968 221.70849,383.01347 l -0.63438,3.51907 a 108.61643,108.61643 0 0 0 -1.71832,19.22622 c 0,25.68742 19.74821,61.35259 40.67278,81.17573 -33.83946,13.89643 -67.33425,40.18825 -78.1387,76.78251 a 68.670439,68.670439 0 0 0 -2.81225,19.45351 c 0,38.03785 30.9223,68.87524 69.06505,68.87524 H 398.6432 c 7.13054,0 14.21861,-1.12391 20.9945,-3.33425 35.47535,-11.56371 54.83395,-49.61654 43.23777,-84.992 a 127.81019,127.81019 0 0 0 -29.66603,-49.17448 z" fill="#faf1e1" id="SvgjsPath1146"></path>
    <path d="m 469.99852,561.38428 c 12.88491,39.31661 -8.62658,81.60531 -48.03809,94.44777 a 75.261502,75.261502 0 0 1 -23.31723,3.70388 H 248.14267 c -42.27621,0.002 -76.55773,-34.18412 -76.55773,-76.36293 0,-7.30536 1.04897,-14.57077 3.11945,-21.57642 9.70053,-32.85292 37.03383,-60.09632 72.51918,-77.15965 -19.99048,-22.58295 -35.35797,-54.92886 -35.35797,-78.67817 0,-6.89327 0.6144,-13.77155 1.83571,-20.55243 l 0.63188,-3.52156 c 6.19895,-34.42638 23.88667,-63.80269 49.85881,-86.56297 22.04098,-19.31363 49.19945,-32.87289 74.46228,-38.26513 46.29479,-9.88035 82.75918,-8.29939 126.54143,5.9392 52.6336,17.11829 103.80862,62.84613 118.39188,114.68051 l 4.63547,24.24632 c 4.43318,53.90986 -25.15043,102.96195 -74.32991,116.71852 a 97.245034,97.245034 0 0 1 -26.19692,3.59399 h -38.24015 a 135.28289,135.28289 0 0 1 20.54244,39.34907 z m 99.07574,-180.15656 c -13.21709,-46.42966 -60.4085,-88.53854 -108.51403,-104.18076 -41.22973,-13.40941 -75.01924,-14.87548 -118.7765,-5.5346 -22.77027,4.86025 -47.60601,17.25565 -67.71388,34.87844 -23.51953,20.61237 -39.4165,47.01409 -44.98606,77.94888 l -0.63439,3.51906 a 100.98388,100.98388 0 0 0 -1.59843,17.90002 c 0,22.14837 17.5104,56.0128 38.33256,75.73604 l 8.41179,7.96722 -10.71953,4.4032 c -36.43942,14.96289 -64.66186,41.02244 -73.80043,71.97221 a 61.222712,61.222712 0 0 0 -2.50506,17.33058 c 0,33.8969 27.56309,61.38505 61.57237,61.38505 H 398.6432 c 6.3438,0 12.64515,-1.00152 18.67426,-2.9671 31.5417,-10.27996 48.7474,-44.09694 38.44246,-75.53374 A 120.27005,120.27005 0 0 0 427.8247,519.75743 l -12.30049,-12.70509 h 72.17202 c 7.49269,0 14.94541,-1.0215 22.16086,-3.04203 41.71926,-11.6736 67.16691,-53.70006 63.493,-100.27208 z" fill="#524f75" id="SvgjsPath1145"></path>
    <path d="m 419.27305,547.14819 c 17.01838,0 30.96476,13.51679 31.49675,30.53018 l 0.51699,16.56632 c 0.67434,21.58393 -16.27661,39.6263 -37.85803,40.30065 -0.4046,0.0125 -0.8142,0.02 -1.21881,0.02 -18.39204,0 -33.30248,-14.91044 -33.30248,-33.30248 0,-2.11793 0.19981,-4.22837 0.60192,-6.30634 l 3.43664,-17.8151 a 36.993873,36.993873 0 0 1 36.32702,-29.99321 z m 49.68149,-137.36586 h 39.88854 c 19.31114,0 34.96586,15.65471 34.96586,34.96586 0,2.35519 -0.23977,4.7079 -0.71181,7.02064 l -0.0974,0.47204 a 53.115629,53.115629 0 0 1 -52.03918,42.45853 h -3.85374 a 53.682576,53.682576 0 0 1 -52.49374,-42.45853 c -4.05354,-18.96648 8.03466,-37.62826 27.00114,-41.6818 a 35.045776,35.045776 0 0 1 7.34033,-0.77674 z" fill="#ffffff" id="SvgjsPath1144"></path>
    <path d="m 504.24757,414.77745 c 4.52059,0.035 9.73549,0.91411 15.64972,2.64492 6.14899,1.73081 11.33643,5.39973 11.33643,12.16312 0,0.48453 -0.0325,0.97405 -0.0949,1.45858 -1.0265,7.81986 -8.27692,13.70412 -16.89101,13.70412 h -15.11274 c -9.22848,0 -17.34306,-5.58955 -19.89307,-13.70412 -1.79075,-5.70193 1.81573,-11.64613 8.04464,-13.28703 1.72332,-0.45705 8.17202,-3.04202 16.96094,-2.97959 z" fill="#8b674f" id="SvgjsPath1143"></path>
    <path d="m 494.06501,423.55888 c -1.40612,0.36214 -4.74037,1.40862 -4.86524,1.44109 -2.22783,0.58693 -3.27431,2.31524 -2.80726,3.79879 1.5385,4.90271 6.70095,8.45924 12.74505,8.45924 h 15.11274 c 4.96765,0 8.94127,-3.22435 9.46076,-7.18798 a 3.47161,3.47161 0 0 0 0.0325,-0.48203 c 0,-2.17787 -1.65338,-3.76382 -5.94669,-4.97264 -5.28734,-1.54599 -9.8354,-2.31274 -13.59922,-2.34272 a 39.016898,39.016898 0 0 0 -10.13261,1.28625 z m 27.86529,-13.35196 c 10.00024,2.81974 16.7961,9.33089 16.7961,19.37857 0,0.81171 -0.0525,1.62592 -0.15735,2.43263 -1.531,11.67859 -12.06322,20.22525 -24.31875,20.22525 h -15.11274 c -12.41787,0 -23.48207,-7.62506 -27.04109,-18.95399 -3.11196,-9.91532 3.04702,-20.08039 13.28452,-22.77776 a 95.207024,95.207024 0 0 1 4.95017,-1.46607 53.97479,53.97479 0 0 1 13.97385,-1.75828 c 5.27236,0.0375 11.15911,1.03149 17.62529,2.91965 z" fill="#524f75" id="SvgjsPath1142"></path>
    <path d="m 493.77779,365.72536 a 38.36254,38.36254 0 1 0 76.72508,0 38.36254,38.36254 0 1 0 -76.72508,0 z" fill="#ffffff" id="SvgjsPath1141"></path>
    <path d="m 532.14033,411.58307 c -25.32776,0 -45.86271,-20.53245 -45.86271,-45.85771 0,-25.32527 20.53495,-45.85522 45.86271,-45.85522 25.32777,0 45.86271,20.52995 45.86271,45.85522 0.002,25.32526 -20.53245,45.85771 -45.86271,45.85771 z m 0,-14.98536 c 17.05335,0 30.87735,-13.82151 30.87735,-30.86986 0,-17.04835 -13.824,-30.87235 -30.87735,-30.87235 -17.05334,0 -30.87734,13.8215 -30.87734,30.86986 0,17.04835 13.824,30.87235 30.87734,30.87235 z" fill="#524f75" id="SvgjsPath1140"></path>
    <path d="m 541.72098,377.72364 a 12.332956,12.332956 0 1 0 -2.99708,-8.31188 l 9.14357,1.3287 z" fill="#232323" id="SvgjsPath1139"></path>
    <path d="m 413.85584,366.2923 a 41.427045,41.427045 0 1 0 82.85409,0 41.427045,41.427045 0 1 0 -82.85409,0 z" fill="#ffffff" id="SvgjsPath1138"></path>
    <path d="m 455.28289,415.21203 c -27.02111,0 -48.92722,-21.90361 -48.92722,-48.92223 0,-27.01611 21.90611,-48.91722 48.92722,-48.91722 27.02111,0 48.92722,21.90111 48.92722,48.91722 0,27.01862 -21.90611,48.92223 -48.92722,48.92223 z m 0,-14.98537 c 18.74669,0 33.94185,-15.19516 33.94185,-33.93436 0,-18.7392 -15.19516,-33.93436 -33.94185,-33.93436 -18.74669,0 -33.94186,15.19267 -33.94186,33.93186 0,18.7392 15.19516,33.93686 33.94186,33.93686 z" fill="#524f75" id="SvgjsPath1137"></path>
    <path d="m 458.45979,381.38257 a 13.062244,13.062244 0 0 0 9.90532,4.53057 13.082225,13.082225 0 1 0 0,-26.16445 13.084722,13.084722 0 0 0 -13.08222,12.81749 l 9.70302,1.40862 z" fill="#232323" id="SvgjsPath1136"></path>
    <path d="m 498.76543,454.73843 v 17.48293 a 7.49518,7.49518 0 0 0 14.98536,0 v -17.48293 a 7.49518,7.49518 0 0 0 -14.98536,0 z" fill="#524f75" id="SvgjsPath1135"></path>
    <path d="m 342.21331,597.3092 c 0.79922,3.84874 1.20133,7.76991 1.20132,11.70107 0,39.23419 -32.00374,71.03813 -71.48519,71.03813 h -35.61522 c -30.23047,0 -54.73904,-24.35622 -54.73904,-54.39938 v -2.4501 c 0,-20.80469 10.10264,-39.64379 26.10451,-51.38982" fill="#faf1e1" id="SvgjsPath1134"></path>
    <path d="m 334.87797,598.83021 c 0.69682,3.35173 1.04648,6.7609 1.04648,10.18006 0,35.08574 -28.63953,63.54545 -63.99251,63.54545 h -35.61772 c -26.1045,0 -47.24636,-21.01198 -47.24636,-46.9067 v -2.4501 c 0,-18.0199 8.63657,-34.77604 23.045,-45.34822 A 7.492683,7.492683 0 1 0 203.24902,565.77 c -18.22471,13.37444 -29.16652,34.59372 -29.16652,57.42642 v 2.45011 c 0,34.19161 27.87278,61.89206 62.23172,61.89206 h 35.61772 c 43.60742,0 78.97788,-35.14818 78.97788,-78.53081 0,-4.44067 -0.45456,-8.87634 -1.35868,-13.22459 a 7.493102,7.493102 0 0 0 -14.67317,3.04702 z" fill="#524f75" id="SvgjsPath1133"></path>
    <path d="m 298.96055,514.67989 m -9.99025,0 a 9.990245,9.990245 0 1 0 19.98049,0 9.990245,9.990245 0 1 0 -19.98049,0 z" fill="#524f75" id="SvgjsPath1132"></path>
    <path d="m 220.07508,651.41886 c 39.13429,-7.67251 67.26431,-12.10068 84.38759,-13.27704 14.61823,-1.00651 33.13764,-0.46954 55.55575,1.61593 a 26.299317,26.299317 0 0 1 23.8592,26.18443 23.566985,23.566985 0 0 1 -23.56699,23.56698 h -139.9758 a 17.338068,17.338068 0 0 1 -17.33807,-17.33807 21.144351,21.144351 0 0 1 17.07832,-20.75223 z" fill="#faf1e1" id="SvgjsPath1131"></path>
    <path d="m 210.48944,672.17109 a 9.842888,9.842888 0 0 0 9.84539,9.84539 h 139.9758 a 16.074302,16.074302 0 0 0 16.07431,-16.0743 18.801639,18.801639 0 0 0 -17.06334,-18.72422 c -22.04847,-2.0505 -40.18076,-2.57998 -54.34693,-1.60593 -16.73116,1.15387 -44.60893,5.53959 -83.46099,13.15715 a 13.654166,13.654166 0 0 0 -11.02424,13.40191 z m 93.45624,-41.50696 c 15.07028,-1.03899 33.97432,-0.48703 56.76456,1.6309 17.37304,1.61842 30.66006,16.19669 30.66006,33.64715 0,17.15574 -13.90642,31.05966 -31.05967,31.05966 h -139.9758 c -13.71411,0 -24.83075,-11.11664 -24.83075,-24.83075 0,-13.69163 9.69053,-25.47012 23.12991,-28.10505 39.419,-7.72995 67.79879,-12.19559 85.31169,-13.40191 z" fill="#524f75" id="SvgjsPath1130"></path>
    <path d="m 375.88792,658.40953 h -22.43809 a 7.492685,7.492685 0 1 0 0,14.98537 h 22.43809 a 7.49518,7.49518 0 0 0 0,-14.98537 z" fill="#524f75" id="SvgjsPath1129"></path>
    <path d="m 258.56,495.70342 c 4.46814,3.64644 7.56761,6.15649 9.32339,7.54763 4.05854,3.21936 7.69998,5.44469 11.08918,6.65351 a 7.492683,7.492683 0 1 0 5.04007,-14.11122 c -1.60843,-0.57194 -3.93365,-1.99555 -6.81834,-4.28332 a 945.51914,945.51914 0 0 1 -9.15855,-7.41776 7.4934784,7.4934784 0 1 0 -9.47575,11.61116 z" fill="#524f75" id="SvgjsPath1128"></path>
    <path d="m 311.72308,347.15349 -2.33771,-3.11695 m -11.38389,-15.58728 c -30.2055,-40.05339 -53.5527,-78.79805 -70.0416,-116.23649 -15.28757,-34.7111 -22.27574,-69.92172 -20.96203,-105.62685 0.69183,-18.881561 12.48781,-35.617721 30.08812,-42.695801 16.20917,-6.51864 34.75856,-1.7483 45.72285,11.75851 35.72761,44.022011 58.5678,89.505101 64.28222,118.426851 5.80434,29.3913 12.13815,57.37397 22.69035,106.03146" fill="#faf1e1" id="SvgjsPath1127"></path>
    <path d="m 317.94201,342.59295 -2.33522,-3.11446 A 7.492683,7.492683 0 1 0 303.621,348.4722 l 2.34021,3.11446 a 7.490185,7.490185 0 1 0 11.9808,-8.99122 z m -13.73159,-18.71922 c -29.87083,-39.60882 -52.91832,-77.86147 -69.15996,-114.74295 -14.83551,-33.6921 -21.6039,-67.77382 -20.33514,-102.33257 0.58692,-15.919451 10.5397,-30.040661 25.40019,-36.014831 13.16714,-5.29482 28.21745,-1.42361 37.10876,9.5282 33.08769,40.767691 56.91193,85.583921 62.74872,115.152551 0.29472,1.50353 0.59692,3.01455 0.89913,4.53307 0.99153,4.94517 2.02302,9.99024 3.12944,15.29506 2.16788,10.40234 4.49561,21.22927 8.0946,37.73815 l 4.90271,22.45307 c 2.13541,9.78794 3.87871,17.80262 5.69194,26.14947 a 7.492683,7.492683 0 1 0 14.6432,-3.17191 c -1.81073,-8.35434 -3.55653,-16.379 -5.69444,-26.16944 l -4.90271,-22.45307 a 3992.7259,3992.7259 0 0 1 -8.06213,-37.60328 c -1.09892,-5.26986 -2.12292,-10.27497 -3.10696,-15.18267 -0.30221,-1.50354 -0.59942,-3.00207 -0.89413,-4.49312 -6.36878,-32.26099 -31.30693,-79.18017 -65.81073,-121.691161 -13.04226,-16.06431 -35.08324,-21.73377 -54.33944,-13.99383 -20.34263,8.18201 -33.97931,27.53061 -34.78353,49.371781 -1.35368,36.85651 5.85678,73.19103 21.59391,108.92363 16.73616,37.9979 40.37807,77.23458 70.91325,117.72504 a 7.4917103,7.4917103 0 1 0 11.96332,-9.02119 z" fill="#524f75" id="SvgjsPath1126"></path>
    <path d="m 258.75481,134.01663 a 18.117307,18.117307 0 0 1 22.94259,7.50268 c 18.80664,32.40585 30.38283,57.42891 34.74108,75.06919 4.68792,18.98646 13.48683,49.89627 26.39173,92.72445 a 9.255961,9.255961 0 0 1 -4.83778,11.00425 11.596176,11.596176 0 0 1 -12.99731,-2.00554 c -31.13459,-29.33885 -52.65608,-57.53132 -64.56944,-84.5824 -10.48226,-23.79676 -16.02186,-49.22193 -16.62127,-76.27801 a 24.980605,24.980605 0 0 1 14.9504,-23.43462 z" fill="#ffb8a8" id="SvgjsPath1125"></path>
    <path d="m 364.47906,454.92824 c 12.09319,-8.46673 28.76192,-5.5271 37.22865,6.56609 0.77424,1.09893 1.45857,2.2603 2.05549,3.46162 l 42.91809,86.60293 a 13.679141,13.679141 0 0 1 -4.4082,17.27313 13.366946,13.366946 0 0 1 -17.54287,-1.9456 l -64.78673,-71.12804 c -10.17506,-11.16909 -9.37085,-28.47219 1.79825,-38.64226 0.86915,-0.78673 1.78076,-1.52102 2.73732,-2.18787 z" fill="#ff7e3c" id="SvgjsPath1124"></path>
    <path d="m 367.34127,459.02175 a 22.353171,22.353171 0 0 0 -3.70139,33.37241 l 64.78674,71.12554 a 8.361834,8.361834 0 0 0 10.97927,1.21881 8.674029,8.674029 0 0 0 2.79977,-10.9593 l -42.91809,-86.60542 a 21.733776,21.733776 0 0 0 -31.9463,-8.15204 z m -5.72941,-8.18701 c 14.35099,-10.04769 34.13916,-6.56109 44.18935,7.79239 0.91411,1.30623 1.73081,2.68238 2.43762,4.11099 l 42.91809,86.60292 a 18.666771,18.666771 0 0 1 -6.02162,23.58197 18.352078,18.352078 0 0 1 -24.09647,-2.67738 L 356.2521,499.12508 c -12.03075,-13.21209 -11.07918,-33.67211 2.13042,-45.70286 1.0215,-0.93409 2.09795,-1.79825 3.22934,-2.58748 z" fill="#524f75" id="SvgjsPath1123"></path>
    <path d="m 301.63294,436.78846 a 12.757541,12.757541 0 0 1 18.46447,-4.25085 l 37.29857,26.08453 -4.04105,8.93127 -45.10845,-14.17116 a 11.526244,11.526244 0 0 1 -6.61354,-16.59379 z" fill="#62cca3" id="SvgjsPath1122"></path>
    <path d="m 316.95048,436.87338 a 7.764917,7.764917 0 0 0 -11.18908,2.78478 6.528624,6.528624 0 0 0 3.90619,9.32839 l 45.34821,13.38193 -5.99664,2.81225 3.88371,-8.99621 1.79325,6.11902 z m 4.02107,-9.2185 c 0.53698,0.28472 1.05647,0.59692 1.56098,0.93658 l 41.18478,27.74791 -7.2779,16.86603 -49.59656,-14.63321 a 16.516371,16.516371 0 0 1 -9.89534,-23.61694 17.757659,17.757659 0 0 1 24.02654,-7.30037 z" fill="#524f75" id="SvgjsPath1121"></path>
    <path d="m 365.09097,389.05757 a 12.755044,12.755044 0 0 0 -10.30994,15.89448 l 11.75353,43.96706 9.77295,-0.74177 2.11294,-47.23388 a 11.521249,11.521249 0 0 0 -13.32948,-11.88839 z" fill="#62cca3" id="SvgjsPath1120"></path>
    <path d="m 373.98728,401.75018 c 0,-0.26474 -0.015,-0.52949 -0.0475,-0.79173 a 7.764917,7.764917 0 0 0 -8.52168,-6.92574 6.518634,6.518634 0 0 0 -5.54709,8.45924 l 14.26607,45.07598 -5.68445,-3.40168 9.6306,-1.81073 -4.07103,4.91021 z m -9.59563,-17.65526 a 17.750166,17.750166 0 0 1 19.58338,17.65276 l 0.025,49.659 -18.05487,3.39419 -15.59727,-49.29686 a 16.513873,16.513873 0 0 1 14.04379,-21.40909 z" fill="#524f75" id="SvgjsPath1119"></path>
    <path d="m 322.22533,402.26218 a 16.463922,16.463922 0 0 1 25.15543,5.58454 l 21.1968,43.49503 -7.31785,6.51364 -38.74467,-29.93077 a 16.359024,16.359024 0 0 1 -0.28971,-25.66244 z" fill="#62cca3" id="SvgjsPath1118"></path>
    <path d="m 342.88265,410.04208 a 11.466302,11.466302 0 0 0 -19.36858,-2.00305 11.363902,11.363902 0 0 0 2.048,15.93444 l 35.46536,27.40074 1.39614,-1.24378 z M 319.0809,398.37847 a 21.459044,21.459044 0 0 1 32.78049,7.28788 l 22.85767,46.89421 -13.24706,11.78349 -42.01897,-32.4633 a 21.354146,21.354146 0 0 1 -0.37463,-33.49978 z" fill="#524f75" id="SvgjsPath1117"></path>
    <path d="m 354.72609,521.08863 49.05959,0.63938 c 13.05725,0.54697 23.18985,11.60367 22.6329,24.69338 a 24.031532,24.031532 0 0 1 -0.26974,2.71236 c -2.048,12.94236 -14.17616,21.77623 -27.08355,19.73073 a 24.014049,24.014049 0 0 1 -2.65241,-0.57944 l -43.78225,-10.82942" fill="#faf1e1" id="SvgjsPath1116"></path>
    <path d="m 354.37893,529.18323 49.05959,-0.21729 c 8.7065,0.21729 15.7646,7.65003 15.53732,16.61378 -0.015,0.62439 -0.0649,1.24378 -0.15235,1.86068 -1.24878,8.88382 -9.43328,15.06529 -18.27215,13.824 a 15.719649,15.719649 0 0 1 -1.81823,-0.36464 l -44.17935,-10.11762 a 7.492683,7.492683 0 1 0 -3.34424,14.60573 l 43.96457,10.06767 c 0.93908,0.24976 2.11044,0.48203 3.29428,0.64937 17.04086,2.39516 32.79547,-9.51321 35.19563,-26.58154 0.16484,-1.18385 0.26224,-2.37518 0.29222,-3.57152 0.43457,-17.23067 -13.15965,-31.55168 -30.36535,-31.97377 l -49.27688,0.21479 a 7.4952508,7.4952508 0 0 0 0.0649,14.99036 z" fill="#524f75" id="SvgjsPath1115"></path>
  </g>
</svg><style>@media (prefers-color-scheme: light) { :root { filter: none; } }
@media (prefers-color-scheme: dark) { :root { filter: none; } }
</style></svg>